# xmcd
#
# Track frame offsets:
#	150
#	15214
#	27440
#	42018
#	58998
#	75151
#	89958
#	108609
#	121963
#	136315
#	150834
#	164902
#	180681
#	196518
#	214482
#	229277
#	245489
#	259710
#	272859
#	290914
#	307416
#
# Disc length: 4278 seconds
#
# Revision: 2
# Processed by: cddbd v1.5.2PL0 Copyright (c) Steve Scherf et al.
# Submitted via: dBpowerAMP V4.0
#
DISCID=3610b415
DTITLE=Various Artist - Hott Country # 267 Canada
DYEAR=2018
DGENRE=Country
TTITLE0=Kenny Chesney - Get Along
TTITLE1=Tyler Farr - Love By The Moon
TTITLE2=Mason Ramsey - Famous
TTITLE3=Meghan Patrick - The Bad Guy
TTITLE4=Sugarland ft. Taylor Swift - Babe
TTITLE5=David James - Downtown Kids
TTITLE6=Carrie Underwood - Cry Pretty
TTITLE7=Tim Hicks - Loud
TTITLE8=Thomas Rhett - Life Changes
TTITLE9=Kira Isabella - Little Girl
TTITLE10=Tyler Rich - The Difference
TTITLE11=Danielle Bradbery - Worth It
TTITLE12=Chris Stapleton - Millionaire
TTITLE13=Miranda Lambert - Keeper Of The Flame
TTITLE14=Granger Smith - You're In It
TTITLE15=George Canyon - Better Off In Love
TTITLE16=Parmalee - Hotdamalama
TTITLE17=Jordan Davis - Take It From Me
TTITLE18=Devin Dawson - Asking For A Friend
TTITLE19=Kacey Musgraves - Butterflies
TTITLE20=Jagertown - Rearview
EXTD=
EXTT0=
EXTT1=
EXTT2=
EXTT3=
EXTT4=
EXTT5=
EXTT6=
EXTT7=
EXTT8=
EXTT9=
EXTT10=
EXTT11=
EXTT12=
EXTT13=
EXTT14=
EXTT15=
EXTT16=
EXTT17=
EXTT18=
EXTT19=
EXTT20=
PLAYORDER=
